<?xml version="1.0" encoding="UTF-8"?>
<svg width="500" height="500" viewBox="0 0 500 500" fill="none" xmlns="http://www.w3.org/2000/svg">
  <path d="M169.12,116.48L344.73,159.18L321.54,279.6L145.93,236.9L169.12,116.48Z" fill="#f3f3f3"/>
  <path d="M148.37,292.18L323.98,334.89L300.8,455.31L125.19,412.6L148.37,292.18Z" fill="#f3f3f3"/>
  <path d="M364.22,269.86L379.25,198.28L253.9,168.47L238.87,240.05L364.22,269.86Z" fill="#ff7e00"/>
  <path d="M235.32,294.57L250.35,222.99L125,193.18L109.97,264.76L235.32,294.57Z" fill="#9c27b0"/>
  <path d="M343.42,445.57L358.45,373.99L233.1,344.18L218.07,415.76L343.42,445.57Z" fill="#ff7e00"/>
  <path d="M214.52,470.28L229.55,398.7L104.2,368.89L89.17,440.47L214.52,470.28Z" fill="#9c27b0"/>
  <path d="M350,150C350,150 350,100 300,100C250,100 250,150 250,150" stroke="#333" stroke-width="4" stroke-linecap="round"/>
  <path d="M250,150C250,150 250,100 200,100C150,100 150,150 150,150" stroke="#333" stroke-width="4" stroke-linecap="round"/>
  <circle cx="250" cy="70" r="20" fill="#ff7e00"/>
  <circle cx="200" cy="70" r="15" fill="#9c27b0"/>
  <circle cx="300" cy="70" r="15" fill="#9c27b0"/>
</svg>
