<?xml version="1.0" encoding="UTF-8"?>
<svg width="500" height="500" viewBox="0 0 500 500" fill="none" xmlns="http://www.w3.org/2000/svg">
  <path d="M321.54,116.48L145.93,159.18L169.12,279.6L344.73,236.9L321.54,116.48Z" fill="#f3f3f3"/>
  <path d="M300.8,292.18L125.19,334.89L148.37,455.31L323.98,412.6L300.8,292.18Z" fill="#f3f3f3"/>
  <path d="M109.97,269.86L94.94,198.28L220.29,168.47L235.32,240.05L109.97,269.86Z" fill="#9c27b0"/>
  <path d="M238.87,294.57L223.84,222.99L349.19,193.18L364.22,264.76L238.87,294.57Z" fill="#ff7e00"/>
  <path d="M130.77,445.57L115.74,373.99L241.09,344.18L256.12,415.76L130.77,445.57Z" fill="#9c27b0"/>
  <path d="M259.67,470.28L244.64,398.7L369.99,368.89L385.02,440.47L259.67,470.28Z" fill="#ff7e00"/>
  <path d="M150,150C150,150 150,100 200,100C250,100 250,150 250,150" stroke="#333" stroke-width="4" stroke-linecap="round"/>
  <path d="M250,150C250,150 250,100 300,100C350,100 350,150 350,150" stroke="#333" stroke-width="4" stroke-linecap="round"/>
  <circle cx="250" cy="70" r="20" fill="#9c27b0"/>
  <circle cx="200" cy="70" r="15" fill="#ff7e00"/>
  <circle cx="300" cy="70" r="15" fill="#ff7e00"/>
  <rect x="200" y="350" width="100" height="20" rx="5" fill="#333"/>
  <rect x="220" y="380" width="60" height="10" rx="5" fill="#333"/>
</svg>
